<mxfile host="app.diagrams.net" agent="Mozilla/5.0 (Windows NT 10.0; Win64; x64) AppleWebKit/537.36 (KHTML, like Gecko) Chrome/127.0.0.0 Safari/537.36" version="24.7.6">
  <diagram name="Página-1" id="Fve80RC_g8ZSUdGshsuF">
    <mxGraphModel dx="1050" dy="522" grid="1" gridSize="10" guides="1" tooltips="1" connect="1" arrows="1" fold="1" page="1" pageScale="1" pageWidth="827" pageHeight="1169" math="0" shadow="0">
      <root>
        <mxCell id="0" />
        <mxCell id="1" parent="0" />
        <mxCell id="M_JkyTJL8aHM78k5cdu4-1" value="Sistema" style="rounded=1;whiteSpace=wrap;html=1;fillColor=#d5e8d4;strokeColor=#82b366;" vertex="1" parent="1">
          <mxGeometry x="256" y="82" width="110" height="50" as="geometry" />
        </mxCell>
        <mxCell id="M_JkyTJL8aHM78k5cdu4-2" value="" style="rounded=1;whiteSpace=wrap;html=1;rotation=90;fillColor=#000000;arcSize=50;" vertex="1" parent="1">
          <mxGeometry x="214.38" y="296.13" width="193.25" height="20" as="geometry" />
        </mxCell>
        <mxCell id="M_JkyTJL8aHM78k5cdu4-3" value="" style="endArrow=none;dashed=1;html=1;dashPattern=1 3;strokeWidth=2;rounded=0;" edge="1" parent="1">
          <mxGeometry width="50" height="50" relative="1" as="geometry">
            <mxPoint x="310.5" y="220" as="sourcePoint" />
            <mxPoint x="311" y="150" as="targetPoint" />
          </mxGeometry>
        </mxCell>
        <mxCell id="M_JkyTJL8aHM78k5cdu4-4" value="Empregador" style="shape=umlActor;verticalLabelPosition=bottom;verticalAlign=top;html=1;outlineConnect=0;" vertex="1" parent="1">
          <mxGeometry x="64.01" y="61" width="30" height="60" as="geometry" />
        </mxCell>
        <mxCell id="M_JkyTJL8aHM78k5cdu4-5" value="" style="rounded=1;whiteSpace=wrap;html=1;rotation=90;fillColor=#000000;arcSize=50;" vertex="1" parent="1">
          <mxGeometry x="-15.62" y="296.13" width="193.25" height="20" as="geometry" />
        </mxCell>
        <mxCell id="M_JkyTJL8aHM78k5cdu4-6" value="" style="endArrow=none;dashed=1;html=1;dashPattern=1 3;strokeWidth=2;rounded=0;" edge="1" parent="1">
          <mxGeometry width="50" height="50" relative="1" as="geometry">
            <mxPoint x="81" y="213" as="sourcePoint" />
            <mxPoint x="81" y="163" as="targetPoint" />
          </mxGeometry>
        </mxCell>
        <mxCell id="M_JkyTJL8aHM78k5cdu4-7" value="" style="endArrow=none;dashed=1;html=1;rounded=0;" edge="1" parent="1">
          <mxGeometry width="50" height="50" relative="1" as="geometry">
            <mxPoint x="80.58" y="480" as="sourcePoint" />
            <mxPoint x="80.58" y="410" as="targetPoint" />
          </mxGeometry>
        </mxCell>
        <mxCell id="M_JkyTJL8aHM78k5cdu4-8" value="" style="endArrow=none;html=1;rounded=0;strokeWidth=4;" edge="1" parent="1">
          <mxGeometry width="50" height="50" relative="1" as="geometry">
            <mxPoint x="53" y="539" as="sourcePoint" />
            <mxPoint x="103" y="489" as="targetPoint" />
          </mxGeometry>
        </mxCell>
        <mxCell id="M_JkyTJL8aHM78k5cdu4-9" value="" style="endArrow=none;html=1;rounded=0;strokeWidth=4;" edge="1" parent="1">
          <mxGeometry width="50" height="50" relative="1" as="geometry">
            <mxPoint x="57" y="486" as="sourcePoint" />
            <mxPoint x="101" y="542" as="targetPoint" />
          </mxGeometry>
        </mxCell>
        <mxCell id="M_JkyTJL8aHM78k5cdu4-10" value="" style="endArrow=classic;html=1;rounded=0;dashed=1;" edge="1" parent="1">
          <mxGeometry width="50" height="50" relative="1" as="geometry">
            <mxPoint x="279" y="384" as="sourcePoint" />
            <mxPoint x="109" y="384.12" as="targetPoint" />
          </mxGeometry>
        </mxCell>
        <mxCell id="M_JkyTJL8aHM78k5cdu4-11" value="9.Finaliza Cadastro" style="edgeLabel;html=1;align=center;verticalAlign=middle;resizable=0;points=[];" vertex="1" connectable="0" parent="M_JkyTJL8aHM78k5cdu4-10">
          <mxGeometry x="-0.2212" y="-1" relative="1" as="geometry">
            <mxPoint x="-19" as="offset" />
          </mxGeometry>
        </mxCell>
        <mxCell id="M_JkyTJL8aHM78k5cdu4-12" value="" style="endArrow=classic;html=1;rounded=0;" edge="1" parent="1">
          <mxGeometry width="50" height="50" relative="1" as="geometry">
            <mxPoint x="110" y="230" as="sourcePoint" />
            <mxPoint x="274.75" y="231" as="targetPoint" />
          </mxGeometry>
        </mxCell>
        <mxCell id="M_JkyTJL8aHM78k5cdu4-13" value="1.Acessa a função (adicionar)" style="edgeLabel;html=1;align=center;verticalAlign=middle;resizable=0;points=[];" vertex="1" connectable="0" parent="M_JkyTJL8aHM78k5cdu4-12">
          <mxGeometry x="-0.0762" y="-2" relative="1" as="geometry">
            <mxPoint x="1" y="-2" as="offset" />
          </mxGeometry>
        </mxCell>
        <mxCell id="M_JkyTJL8aHM78k5cdu4-14" value="" style="endArrow=classic;html=1;rounded=0;" edge="1" parent="1">
          <mxGeometry width="50" height="50" relative="1" as="geometry">
            <mxPoint x="110" y="258" as="sourcePoint" />
            <mxPoint x="274.75" y="259" as="targetPoint" />
          </mxGeometry>
        </mxCell>
        <mxCell id="M_JkyTJL8aHM78k5cdu4-15" value="2.Entrada de dados(trabalhos)" style="edgeLabel;html=1;align=center;verticalAlign=middle;resizable=0;points=[];" vertex="1" connectable="0" parent="M_JkyTJL8aHM78k5cdu4-14">
          <mxGeometry x="-0.0762" y="-2" relative="1" as="geometry">
            <mxPoint x="1" y="-2" as="offset" />
          </mxGeometry>
        </mxCell>
        <mxCell id="M_JkyTJL8aHM78k5cdu4-16" value="" style="endArrow=none;dashed=1;html=1;dashPattern=1 3;strokeWidth=2;rounded=0;" edge="1" parent="1">
          <mxGeometry width="50" height="50" relative="1" as="geometry">
            <mxPoint x="546.21" y="220" as="sourcePoint" />
            <mxPoint x="546.71" y="150" as="targetPoint" />
          </mxGeometry>
        </mxCell>
        <mxCell id="M_JkyTJL8aHM78k5cdu4-17" value="" style="endArrow=classic;html=1;rounded=0;" edge="1" parent="1">
          <mxGeometry width="50" height="50" relative="1" as="geometry">
            <mxPoint x="334.76" y="231" as="sourcePoint" />
            <mxPoint x="514.76" y="231" as="targetPoint" />
          </mxGeometry>
        </mxCell>
        <mxCell id="M_JkyTJL8aHM78k5cdu4-18" value="3.Verifica se os dados já existem" style="edgeLabel;html=1;align=center;verticalAlign=middle;resizable=0;points=[];" vertex="1" connectable="0" parent="M_JkyTJL8aHM78k5cdu4-17">
          <mxGeometry x="-0.477" y="-1" relative="1" as="geometry">
            <mxPoint x="36" as="offset" />
          </mxGeometry>
        </mxCell>
        <mxCell id="M_JkyTJL8aHM78k5cdu4-19" value="" style="endArrow=classic;html=1;rounded=0;dashed=1;" edge="1" parent="1">
          <mxGeometry width="50" height="50" relative="1" as="geometry">
            <mxPoint x="414.76" y="253.33" as="sourcePoint" />
            <mxPoint x="334.76" y="253.33" as="targetPoint" />
            <Array as="points">
              <mxPoint x="510" y="253" />
            </Array>
          </mxGeometry>
        </mxCell>
        <mxCell id="M_JkyTJL8aHM78k5cdu4-20" value="Text" style="edgeLabel;html=1;align=center;verticalAlign=middle;resizable=0;points=[];" vertex="1" connectable="0" parent="M_JkyTJL8aHM78k5cdu4-19">
          <mxGeometry x="-0.6791" y="-1" relative="1" as="geometry">
            <mxPoint as="offset" />
          </mxGeometry>
        </mxCell>
        <mxCell id="M_JkyTJL8aHM78k5cdu4-21" value="4.Usuário não existe" style="edgeLabel;html=1;align=center;verticalAlign=middle;resizable=0;points=[];" vertex="1" connectable="0" parent="M_JkyTJL8aHM78k5cdu4-19">
          <mxGeometry x="0.0634" y="3" relative="1" as="geometry">
            <mxPoint x="-41" y="-3" as="offset" />
          </mxGeometry>
        </mxCell>
        <mxCell id="M_JkyTJL8aHM78k5cdu4-22" value="" style="endArrow=classic;html=1;rounded=0;" edge="1" parent="1">
          <mxGeometry width="50" height="50" relative="1" as="geometry">
            <mxPoint x="335.76" y="319" as="sourcePoint" />
            <mxPoint x="516" y="319" as="targetPoint" />
          </mxGeometry>
        </mxCell>
        <mxCell id="M_JkyTJL8aHM78k5cdu4-23" value="6.Insere Dados no Banco&amp;nbsp;" style="edgeLabel;html=1;align=center;verticalAlign=middle;resizable=0;points=[];" vertex="1" connectable="0" parent="M_JkyTJL8aHM78k5cdu4-22">
          <mxGeometry x="-0.1902" relative="1" as="geometry">
            <mxPoint x="9" as="offset" />
          </mxGeometry>
        </mxCell>
        <mxCell id="M_JkyTJL8aHM78k5cdu4-24" value="Banco de Dados&lt;br&gt;Local" style="rounded=1;whiteSpace=wrap;html=1;fillColor=#d5e8d4;strokeColor=#82b366;" vertex="1" parent="1">
          <mxGeometry x="491.63" y="82" width="110" height="50" as="geometry" />
        </mxCell>
        <mxCell id="M_JkyTJL8aHM78k5cdu4-25" value="" style="endArrow=classic;html=1;rounded=0;" edge="1" parent="1">
          <mxGeometry width="50" height="50" relative="1" as="geometry">
            <mxPoint x="335.76" y="300" as="sourcePoint" />
            <mxPoint x="515.76" y="300" as="targetPoint" />
          </mxGeometry>
        </mxCell>
        <mxCell id="M_JkyTJL8aHM78k5cdu4-26" value="5.Verifica dados" style="edgeLabel;html=1;align=center;verticalAlign=middle;resizable=0;points=[];" vertex="1" connectable="0" parent="M_JkyTJL8aHM78k5cdu4-25">
          <mxGeometry x="-0.477" y="-1" relative="1" as="geometry">
            <mxPoint x="36" as="offset" />
          </mxGeometry>
        </mxCell>
        <mxCell id="M_JkyTJL8aHM78k5cdu4-27" value="" style="endArrow=classic;html=1;rounded=0;" edge="1" parent="1">
          <mxGeometry width="50" height="50" relative="1" as="geometry">
            <mxPoint x="514.76" y="365.76" as="sourcePoint" />
            <mxPoint x="334.76" y="365.46" as="targetPoint" />
          </mxGeometry>
        </mxCell>
        <mxCell id="M_JkyTJL8aHM78k5cdu4-28" value="7.Confirma os Dados Inseridos" style="edgeLabel;html=1;align=center;verticalAlign=middle;resizable=0;points=[];" vertex="1" connectable="0" parent="M_JkyTJL8aHM78k5cdu4-27">
          <mxGeometry x="-0.1902" relative="1" as="geometry">
            <mxPoint x="-15" as="offset" />
          </mxGeometry>
        </mxCell>
        <mxCell id="M_JkyTJL8aHM78k5cdu4-29" value="" style="endArrow=classic;html=1;rounded=0;" edge="1" parent="1">
          <mxGeometry width="50" height="50" relative="1" as="geometry">
            <mxPoint x="513.76" y="384.76" as="sourcePoint" />
            <mxPoint x="334.76" y="384.46" as="targetPoint" />
          </mxGeometry>
        </mxCell>
        <mxCell id="M_JkyTJL8aHM78k5cdu4-30" value="8.Confirma criação do trabalho" style="edgeLabel;html=1;align=center;verticalAlign=middle;resizable=0;points=[];" vertex="1" connectable="0" parent="M_JkyTJL8aHM78k5cdu4-29">
          <mxGeometry x="-0.1902" relative="1" as="geometry">
            <mxPoint x="-15" as="offset" />
          </mxGeometry>
        </mxCell>
        <mxCell id="M_JkyTJL8aHM78k5cdu4-31" value="" style="rounded=1;whiteSpace=wrap;html=1;rotation=90;fillColor=#000000;arcSize=50;" vertex="1" parent="1">
          <mxGeometry x="450" y="296.13" width="193.25" height="20" as="geometry" />
        </mxCell>
      </root>
    </mxGraphModel>
  </diagram>
</mxfile>
